<?xml version="1.0" encoding="UTF-8" standalone="no"?><!-- Generator: Gravit.io --><svg xmlns="http://www.w3.org/2000/svg" xmlns:xlink="http://www.w3.org/1999/xlink" style="isolation:isolate" viewBox="54 27 292 106" width="292pt" height="106pt"><g><g><path d=" M 147.884 44 L 346 44 L 346 116 L 147.884 116 C 156.643 106.545 162 93.893 162 80 C 162 66.107 156.643 53.455 147.884 44 Z " fill="rgb(218,37,28)"/><path d=" M 54 80 C 54 50.749 77.749 27 107 27 C 136.251 27 160 50.749 160 80 C 160 109.251 136.251 133 107 133 C 77.749 133 54 109.251 54 80 Z " fill="rgb(218,37,28)"/><path d=" M 106.786 63.195 C 97.525 63.195 89.98 70.74 89.98 80 C 89.98 89.26 97.525 96.805 106.786 96.805 C 116.046 96.805 123.591 89.26 123.591 80 C 123.591 70.74 116.046 63.195 106.786 63.195 Z  M 106.786 94.089 C 99.018 94.089 92.696 87.767 92.696 80 C 92.696 72.233 99.018 65.911 106.786 65.911 C 114.553 65.911 120.875 72.233 120.875 80 C 120.875 87.767 114.553 94.089 106.786 94.089 Z  M 106.786 70.136 C 101.353 70.136 96.922 74.568 96.922 80 C 96.922 85.432 101.353 89.864 106.786 89.864 C 112.218 89.864 116.65 85.432 116.65 80 C 116.65 74.552 112.218 70.136 106.786 70.136 L 106.786 70.136 Z  M 106.786 87.148 C 102.846 87.148 99.638 83.939 99.638 80 C 99.638 76.061 102.846 72.852 106.786 72.852 C 110.725 72.852 113.933 76.061 113.933 80 C 113.933 83.939 110.725 87.148 106.786 87.148 Z  M 87.931 57.556 C 87.186 57.556 86.581 58.16 86.581 58.906 L 86.581 65.244 L 84.929 65.244 L 84.929 58.906 C 84.929 58.16 84.325 57.556 83.579 57.556 C 82.833 57.556 82.229 58.16 82.229 58.906 L 82.229 65.244 L 80.577 65.244 L 80.577 58.906 C 80.577 58.16 79.973 57.556 79.227 57.556 C 78.481 57.556 77.877 58.16 77.877 58.906 L 77.877 67.118 C 77.877 69.723 79.846 71.883 82.372 72.201 L 82.372 79.825 C 81.006 80.302 80.021 81.604 80.021 83.129 L 80.021 98.918 C 80.021 100.84 81.594 102.412 83.516 102.412 L 83.944 102.412 C 85.866 102.412 87.439 100.84 87.439 98.918 L 87.439 83.129 C 87.439 81.604 86.454 80.302 85.088 79.825 L 85.088 72.153 C 87.536 71.715 89.321 69.589 89.329 67.102 L 89.329 58.89 C 89.281 58.16 88.678 57.556 87.931 57.556 L 87.931 57.556 Z  M 84.675 98.934 C 84.675 99.363 84.326 99.712 83.897 99.712 L 83.468 99.712 C 83.038 99.712 82.69 99.364 82.69 98.934 L 82.69 83.145 C 82.69 82.716 83.039 82.367 83.468 82.367 L 83.897 82.367 C 84.326 82.367 84.675 82.716 84.675 83.145 L 84.675 98.934 L 84.675 98.934 Z  M 84.167 69.548 L 82.975 69.548 C 81.943 69.548 81.054 68.881 80.704 67.96 L 86.422 67.96 C 86.089 68.897 85.199 69.548 84.167 69.548 Z  M 129.388 57 C 127.562 57 125.815 58.223 124.449 60.431 C 123.353 62.21 122.685 64.386 122.685 66.133 C 122.685 69.358 124.989 72.074 128.038 72.693 L 128.038 80.413 C 126.597 80.895 125.625 82.245 125.624 83.765 L 125.624 99.474 C 125.624 101.412 127.212 103 129.15 103 L 129.658 103 C 131.596 103 133.185 101.427 133.185 99.474 L 133.185 83.765 C 133.185 82.208 132.168 80.89 130.77 80.413 L 130.77 72.693 C 133.82 72.058 136.123 69.358 136.123 66.133 C 136.123 64.386 135.44 62.21 134.36 60.431 C 132.978 58.207 131.215 57 129.388 57 L 129.388 57 Z  M 130.453 99.474 C 130.453 99.919 130.087 100.284 129.643 100.284 L 129.134 100.284 C 128.69 100.284 128.324 99.919 128.324 99.474 L 128.324 83.765 C 128.324 83.32 128.69 82.954 129.134 82.954 L 129.643 82.954 C 130.087 82.954 130.453 83.32 130.453 83.765 L 130.453 99.474 L 130.453 99.474 Z  M 129.388 70.12 C 127.196 70.12 125.402 68.325 125.402 66.133 C 125.402 63.592 127.546 59.716 129.388 59.716 C 131.231 59.716 133.375 63.608 133.375 66.133 C 133.375 68.325 131.596 70.12 129.388 70.12 Z " fill="rgb(255,255,255)"/></g><defs><filter id="lm4YWpASHLe5xXXA12stfUKNh9GbNdG6" x="-200%" y="-200%" width="400%" height="400%" filterUnits="objectBoundingBox" color-interpolation-filters="sRGB"><feGaussianBlur xmlns="http://www.w3.org/2000/svg" in="SourceGraphic" stdDeviation="2.146804531419514"/><feOffset xmlns="http://www.w3.org/2000/svg" dx="1" dy="2" result="pf_100_offsetBlur"/><feFlood xmlns="http://www.w3.org/2000/svg" flood-color="#000000" flood-opacity="0.65"/><feComposite xmlns="http://www.w3.org/2000/svg" in2="pf_100_offsetBlur" operator="in" result="pf_100_dropShadow"/><feBlend xmlns="http://www.w3.org/2000/svg" in="SourceGraphic" in2="pf_100_dropShadow" mode="normal"/></filter></defs><g filter="url(#lm4YWpASHLe5xXXA12stfUKNh9GbNdG6)"><path d=" M 253.812 87.71 L 253.812 87.71 L 253.812 87.71 Q 251.912 87.71 250.572 87.07 L 250.572 87.07 L 250.572 87.07 Q 249.232 86.43 248.402 85.36 L 248.402 85.36 L 248.402 85.36 Q 247.572 84.29 247.192 82.99 L 247.192 82.99 L 247.192 82.99 Q 246.812 81.69 246.812 80.39 L 246.812 80.39 L 246.812 80.39 Q 246.812 79.13 247.232 77.84 L 247.232 77.84 L 247.232 77.84 Q 247.652 76.55 248.522 75.47 L 248.522 75.47 L 248.522 75.47 Q 249.392 74.39 250.712 73.73 L 250.712 73.73 L 250.712 73.73 Q 252.032 73.07 253.812 73.07 L 253.812 73.07 L 253.812 73.07 Q 255.632 73.07 256.962 73.73 L 256.962 73.73 L 256.962 73.73 Q 258.292 74.39 259.142 75.48 L 259.142 75.48 L 259.142 75.48 Q 259.992 76.57 260.402 77.85 L 260.402 77.85 L 260.402 77.85 Q 260.812 79.13 260.812 80.39 L 260.812 80.39 L 260.812 80.39 Q 260.812 81.63 260.392 82.91 L 260.392 82.91 L 260.392 82.91 Q 259.972 84.19 259.102 85.28 L 259.102 85.28 L 259.102 85.28 Q 258.232 86.37 256.912 87.04 L 256.912 87.04 L 256.912 87.04 Q 255.592 87.71 253.812 87.71 Z  M 253.972 86.47 L 253.972 86.47 L 253.972 86.47 Q 255.092 86.47 255.862 85.95 L 255.862 85.95 L 255.862 85.95 Q 256.632 85.43 257.112 84.59 L 257.112 84.59 L 257.112 84.59 Q 257.592 83.75 257.822 82.74 L 257.822 82.74 L 257.822 82.74 Q 258.052 81.73 258.052 80.75 L 258.052 80.75 L 258.052 80.75 Q 258.052 79.41 257.772 78.24 L 257.772 78.24 L 257.772 78.24 Q 257.492 77.07 256.942 76.19 L 256.942 76.19 L 256.942 76.19 Q 256.392 75.31 255.552 74.8 L 255.552 74.8 L 255.552 74.8 Q 254.712 74.29 253.612 74.31 L 253.612 74.31 L 253.612 74.31 Q 252.512 74.33 251.742 74.86 L 251.742 74.86 L 251.742 74.86 Q 250.972 75.39 250.482 76.24 L 250.482 76.24 L 250.482 76.24 Q 249.992 77.09 249.772 78.11 L 249.772 78.11 L 249.772 78.11 Q 249.552 79.13 249.552 80.11 L 249.552 80.11 L 249.552 80.11 Q 249.552 81.11 249.792 82.21 L 249.792 82.21 L 249.792 82.21 Q 250.032 83.31 250.552 84.29 L 250.552 84.29 L 250.552 84.29 Q 251.072 85.27 251.922 85.87 L 251.922 85.87 L 251.922 85.87 Q 252.772 86.47 253.972 86.47 Z  M 267.272 87.39 L 262.412 87.39 L 262.412 86.33 L 262.412 86.33 Q 262.992 86.33 263.232 86.08 L 263.232 86.08 L 263.232 86.08 Q 263.472 85.83 263.532 85.37 L 263.532 85.37 L 263.532 85.37 Q 263.592 84.91 263.592 84.33 L 263.592 84.33 L 263.592 80.57 L 263.592 80.57 Q 263.592 80.21 263.612 79.81 L 263.612 79.81 L 263.612 79.81 Q 263.632 79.41 263.672 78.99 L 263.672 78.99 L 263.672 78.99 Q 263.352 79.01 262.942 79.03 L 262.942 79.03 L 262.942 79.03 Q 262.532 79.05 262.272 79.07 L 262.272 79.07 L 262.272 77.77 L 262.272 77.77 Q 263.172 77.77 263.752 77.68 L 263.752 77.68 L 263.752 77.68 Q 264.332 77.59 264.652 77.45 L 264.652 77.45 L 264.652 77.45 Q 264.972 77.31 265.112 77.19 L 265.112 77.19 L 265.952 77.19 L 265.952 77.19 Q 265.992 77.41 265.992 77.55 L 265.992 77.55 L 265.992 77.55 Q 265.992 77.69 266.012 77.84 L 266.012 77.84 L 266.012 77.84 Q 266.032 77.99 266.072 78.27 L 266.072 78.27 L 266.072 78.27 Q 266.472 77.93 267.002 77.66 L 267.002 77.66 L 267.002 77.66 Q 267.532 77.39 268.072 77.23 L 268.072 77.23 L 268.072 77.23 Q 268.612 77.07 269.072 77.07 L 269.072 77.07 L 269.072 77.07 Q 270.872 77.07 271.652 78.13 L 271.652 78.13 L 271.652 78.13 Q 272.432 79.19 272.432 81.51 L 272.432 81.51 L 272.432 84.53 L 272.432 84.53 Q 272.432 84.85 272.422 85.3 L 272.422 85.3 L 272.422 85.3 Q 272.412 85.75 272.352 86.17 L 272.352 86.17 L 272.352 86.17 Q 272.692 86.13 273.052 86.12 L 273.052 86.12 L 273.052 86.12 Q 273.412 86.11 273.652 86.11 L 273.652 86.11 L 273.652 87.39 L 268.792 87.39 L 268.792 86.33 L 268.792 86.33 Q 269.372 86.33 269.622 86.08 L 269.622 86.08 L 269.622 86.08 Q 269.872 85.83 269.932 85.37 L 269.932 85.37 L 269.932 85.37 Q 269.992 84.91 269.992 84.33 L 269.992 84.33 L 269.972 81.49 L 269.972 81.49 Q 269.972 80.05 269.542 79.34 L 269.542 79.34 L 269.542 79.34 Q 269.112 78.63 268.132 78.63 L 268.132 78.63 L 268.132 78.63 Q 267.552 78.65 266.992 78.91 L 266.992 78.91 L 266.992 78.91 Q 266.432 79.17 266.052 79.57 L 266.052 79.57 L 266.052 79.57 Q 266.072 79.81 266.072 80.07 L 266.072 80.07 L 266.072 80.07 Q 266.072 80.33 266.072 80.59 L 266.072 80.59 L 266.052 84.53 L 266.052 84.53 Q 266.052 84.85 266.042 85.3 L 266.042 85.3 L 266.042 85.3 Q 266.032 85.75 265.972 86.17 L 265.972 86.17 L 265.972 86.17 Q 266.292 86.13 266.662 86.12 L 266.662 86.12 L 266.662 86.12 Q 267.032 86.11 267.272 86.11 L 267.272 86.11 L 267.272 87.39 Z  M 274.652 87.39 L 274.652 86.33 L 274.652 86.33 Q 275.232 86.33 275.482 86.08 L 275.482 86.08 L 275.482 86.08 Q 275.732 85.83 275.782 85.37 L 275.782 85.37 L 275.782 85.37 Q 275.832 84.91 275.832 84.33 L 275.832 84.33 L 275.832 75.69 L 275.832 75.69 Q 275.832 75.35 275.852 74.94 L 275.852 74.94 L 275.852 74.94 Q 275.872 74.53 275.912 74.09 L 275.912 74.09 L 275.912 74.09 Q 275.572 74.11 275.172 74.13 L 275.172 74.13 L 275.172 74.13 Q 274.772 74.15 274.492 74.17 L 274.492 74.17 L 274.492 72.87 L 274.492 72.87 Q 275.412 72.87 276.002 72.78 L 276.002 72.78 L 276.002 72.78 Q 276.592 72.69 276.922 72.55 L 276.922 72.55 L 276.922 72.55 Q 277.252 72.41 277.392 72.29 L 277.392 72.29 L 278.292 72.29 L 278.312 84.53 L 278.312 84.53 Q 278.312 84.85 278.292 85.3 L 278.292 85.3 L 278.292 85.3 Q 278.272 85.75 278.212 86.17 L 278.212 86.17 L 278.212 86.17 Q 278.552 86.13 278.912 86.12 L 278.912 86.12 L 278.912 86.12 Q 279.272 86.11 279.512 86.11 L 279.512 86.11 L 279.512 87.39 L 274.652 87.39 Z  M 280.912 87.39 L 280.912 86.33 L 280.912 86.33 Q 281.492 86.33 281.732 86.08 L 281.732 86.08 L 281.732 86.08 Q 281.972 85.83 282.032 85.37 L 282.032 85.37 L 282.032 85.37 Q 282.092 84.91 282.092 84.33 L 282.092 84.33 L 282.092 80.59 L 282.092 80.59 Q 282.092 80.25 282.112 79.84 L 282.112 79.84 L 282.112 79.84 Q 282.132 79.43 282.172 78.99 L 282.172 78.99 L 282.172 78.99 Q 281.832 79.01 281.432 79.03 L 281.432 79.03 L 281.432 79.03 Q 281.032 79.05 280.772 79.07 L 280.772 79.07 L 280.772 77.77 L 280.772 77.77 Q 281.672 77.77 282.262 77.68 L 282.262 77.68 L 282.262 77.68 Q 282.852 77.59 283.182 77.45 L 283.182 77.45 L 283.182 77.45 Q 283.512 77.31 283.652 77.19 L 283.652 77.19 L 284.552 77.19 L 284.552 84.53 L 284.552 84.53 Q 284.552 84.85 284.542 85.3 L 284.542 85.3 L 284.542 85.3 Q 284.532 85.75 284.472 86.17 L 284.472 86.17 L 284.472 86.17 Q 284.792 86.13 285.162 86.12 L 285.162 86.12 L 285.162 86.12 Q 285.532 86.11 285.772 86.11 L 285.772 86.11 L 285.772 87.39 L 280.912 87.39 Z  M 283.212 75.47 L 283.212 75.47 L 283.212 75.47 Q 282.632 75.47 282.232 75.04 L 282.232 75.04 L 282.232 75.04 Q 281.832 74.61 281.832 73.99 L 281.832 73.99 L 281.832 73.99 Q 281.832 73.37 282.242 72.93 L 282.242 72.93 L 282.242 72.93 Q 282.652 72.49 283.212 72.49 L 283.212 72.49 L 283.212 72.49 Q 283.792 72.49 284.182 72.93 L 284.182 72.93 L 284.182 72.93 Q 284.572 73.37 284.572 73.99 L 284.572 73.99 L 284.572 73.99 Q 284.572 74.61 284.192 75.04 L 284.192 75.04 L 284.192 75.04 Q 283.812 75.47 283.212 75.47 Z  M 292.012 87.39 L 287.152 87.39 L 287.152 86.33 L 287.152 86.33 Q 287.732 86.33 287.972 86.08 L 287.972 86.08 L 287.972 86.08 Q 288.212 85.83 288.272 85.37 L 288.272 85.37 L 288.272 85.37 Q 288.332 84.91 288.332 84.33 L 288.332 84.33 L 288.332 80.57 L 288.332 80.57 Q 288.332 80.21 288.352 79.81 L 288.352 79.81 L 288.352 79.81 Q 288.372 79.41 288.412 78.99 L 288.412 78.99 L 288.412 78.99 Q 288.092 79.01 287.682 79.03 L 287.682 79.03 L 287.682 79.03 Q 287.272 79.05 287.012 79.07 L 287.012 79.07 L 287.012 77.77 L 287.012 77.77 Q 287.912 77.77 288.492 77.68 L 288.492 77.68 L 288.492 77.68 Q 289.072 77.59 289.392 77.45 L 289.392 77.45 L 289.392 77.45 Q 289.712 77.31 289.852 77.19 L 289.852 77.19 L 290.692 77.19 L 290.692 77.19 Q 290.732 77.41 290.732 77.55 L 290.732 77.55 L 290.732 77.55 Q 290.732 77.69 290.752 77.84 L 290.752 77.84 L 290.752 77.84 Q 290.772 77.99 290.812 78.27 L 290.812 78.27 L 290.812 78.27 Q 291.212 77.93 291.742 77.66 L 291.742 77.66 L 291.742 77.66 Q 292.272 77.39 292.812 77.23 L 292.812 77.23 L 292.812 77.23 Q 293.352 77.07 293.812 77.07 L 293.812 77.07 L 293.812 77.07 Q 295.612 77.07 296.392 78.13 L 296.392 78.13 L 296.392 78.13 Q 297.172 79.19 297.172 81.51 L 297.172 81.51 L 297.172 84.53 L 297.172 84.53 Q 297.172 84.85 297.162 85.3 L 297.162 85.3 L 297.162 85.3 Q 297.152 85.75 297.092 86.17 L 297.092 86.17 L 297.092 86.17 Q 297.432 86.13 297.792 86.12 L 297.792 86.12 L 297.792 86.12 Q 298.152 86.11 298.392 86.11 L 298.392 86.11 L 298.392 87.39 L 293.532 87.39 L 293.532 86.33 L 293.532 86.33 Q 294.112 86.33 294.362 86.08 L 294.362 86.08 L 294.362 86.08 Q 294.612 85.83 294.672 85.37 L 294.672 85.37 L 294.672 85.37 Q 294.732 84.91 294.732 84.33 L 294.732 84.33 L 294.712 81.49 L 294.712 81.49 Q 294.712 80.05 294.282 79.34 L 294.282 79.34 L 294.282 79.34 Q 293.852 78.63 292.872 78.63 L 292.872 78.63 L 292.872 78.63 Q 292.292 78.65 291.732 78.91 L 291.732 78.91 L 291.732 78.91 Q 291.172 79.17 290.792 79.57 L 290.792 79.57 L 290.792 79.57 Q 290.812 79.81 290.812 80.07 L 290.812 80.07 L 290.812 80.07 Q 290.812 80.33 290.812 80.59 L 290.812 80.59 L 290.792 84.53 L 290.792 84.53 Q 290.792 84.85 290.782 85.3 L 290.782 85.3 L 290.782 85.3 Q 290.772 85.75 290.712 86.17 L 290.712 86.17 L 290.712 86.17 Q 291.032 86.13 291.402 86.12 L 291.402 86.12 L 291.402 86.12 Q 291.772 86.11 292.012 86.11 L 292.012 86.11 L 292.012 87.39 Z  M 304.452 87.71 L 304.452 87.71 L 304.452 87.71 Q 303.012 87.71 301.892 87.06 L 301.892 87.06 L 301.892 87.06 Q 300.772 86.41 300.152 85.22 L 300.152 85.22 L 300.152 85.22 Q 299.532 84.03 299.532 82.41 L 299.532 82.41 L 299.532 82.41 Q 299.532 81.01 300.152 79.79 L 300.152 79.79 L 300.152 79.79 Q 300.772 78.57 301.902 77.82 L 301.902 77.82 L 301.902 77.82 Q 303.032 77.07 304.532 77.07 L 304.532 77.07 L 304.532 77.07 Q 305.372 77.07 306.152 77.31 L 306.152 77.31 L 306.152 77.31 Q 306.932 77.55 307.552 78.11 L 307.552 78.11 L 307.552 78.11 Q 308.172 78.67 308.542 79.59 L 308.542 79.59 L 308.542 79.59 Q 308.912 80.51 308.892 81.83 L 308.892 81.83 L 302.172 81.95 L 302.172 81.95 Q 302.172 83.19 302.462 84.14 L 302.462 84.14 L 302.462 84.14 Q 302.752 85.09 303.412 85.64 L 303.412 85.64 L 303.412 85.64 Q 304.072 86.19 305.152 86.19 L 305.152 86.19 L 305.152 86.19 Q 305.632 86.19 306.182 86.02 L 306.182 86.02 L 306.182 86.02 Q 306.732 85.85 307.272 85.5 L 307.272 85.5 L 307.272 85.5 Q 307.812 85.15 308.232 84.63 L 308.232 84.63 L 308.992 85.33 L 308.992 85.33 Q 308.332 86.29 307.532 86.81 L 307.532 86.81 L 307.532 86.81 Q 306.732 87.33 305.932 87.52 L 305.932 87.52 L 305.932 87.52 Q 305.132 87.71 304.452 87.71 Z  M 302.272 80.75 L 302.272 80.75 L 306.432 80.75 L 306.432 80.75 Q 306.412 79.95 306.202 79.4 L 306.202 79.4 L 306.202 79.4 Q 305.992 78.85 305.592 78.56 L 305.592 78.56 L 305.592 78.56 Q 305.192 78.27 304.612 78.27 L 304.612 78.27 L 304.612 78.27 Q 303.632 78.27 303.042 78.92 L 303.042 78.92 L 303.042 78.92 Q 302.452 79.57 302.272 80.75 Z  M 191.892 87.71 L 191.892 87.71 L 191.892 87.71 Q 189.992 87.71 188.652 87.07 L 188.652 87.07 L 188.652 87.07 Q 187.312 86.43 186.482 85.36 L 186.482 85.36 L 186.482 85.36 Q 185.652 84.29 185.272 82.99 L 185.272 82.99 L 185.272 82.99 Q 184.892 81.69 184.892 80.39 L 184.892 80.39 L 184.892 80.39 Q 184.892 79.13 185.312 77.84 L 185.312 77.84 L 185.312 77.84 Q 185.732 76.55 186.602 75.47 L 186.602 75.47 L 186.602 75.47 Q 187.472 74.39 188.792 73.73 L 188.792 73.73 L 188.792 73.73 Q 190.112 73.07 191.892 73.07 L 191.892 73.07 L 191.892 73.07 Q 193.712 73.07 195.042 73.73 L 195.042 73.73 L 195.042 73.73 Q 196.372 74.39 197.222 75.48 L 197.222 75.48 L 197.222 75.48 Q 198.072 76.57 198.482 77.85 L 198.482 77.85 L 198.482 77.85 Q 198.892 79.13 198.892 80.39 L 198.892 80.39 L 198.892 80.39 Q 198.892 81.63 198.472 82.91 L 198.472 82.91 L 198.472 82.91 Q 198.052 84.19 197.182 85.28 L 197.182 85.28 L 197.182 85.28 Q 196.312 86.37 194.992 87.04 L 194.992 87.04 L 194.992 87.04 Q 193.672 87.71 191.892 87.71 Z  M 192.052 86.47 L 192.052 86.47 L 192.052 86.47 Q 193.172 86.47 193.942 85.95 L 193.942 85.95 L 193.942 85.95 Q 194.712 85.43 195.192 84.59 L 195.192 84.59 L 195.192 84.59 Q 195.672 83.75 195.902 82.74 L 195.902 82.74 L 195.902 82.74 Q 196.132 81.73 196.132 80.75 L 196.132 80.75 L 196.132 80.75 Q 196.132 79.41 195.852 78.24 L 195.852 78.24 L 195.852 78.24 Q 195.572 77.07 195.022 76.19 L 195.022 76.19 L 195.022 76.19 Q 194.472 75.31 193.632 74.8 L 193.632 74.8 L 193.632 74.8 Q 192.792 74.29 191.692 74.31 L 191.692 74.31 L 191.692 74.31 Q 190.592 74.33 189.822 74.86 L 189.822 74.86 L 189.822 74.86 Q 189.052 75.39 188.562 76.24 L 188.562 76.24 L 188.562 76.24 Q 188.072 77.09 187.852 78.11 L 187.852 78.11 L 187.852 78.11 Q 187.632 79.13 187.632 80.11 L 187.632 80.11 L 187.632 80.11 Q 187.632 81.11 187.872 82.21 L 187.872 82.21 L 187.872 82.21 Q 188.112 83.31 188.632 84.29 L 188.632 84.29 L 188.632 84.29 Q 189.152 85.27 190.002 85.87 L 190.002 85.87 L 190.002 85.87 Q 190.852 86.47 192.052 86.47 Z  M 200.492 87.39 L 200.492 86.33 L 200.492 86.33 Q 201.072 86.33 201.312 86.08 L 201.312 86.08 L 201.312 86.08 Q 201.552 85.83 201.612 85.37 L 201.612 85.37 L 201.612 85.37 Q 201.672 84.91 201.672 84.33 L 201.672 84.33 L 201.672 80.57 L 201.672 80.57 Q 201.672 80.21 201.692 79.81 L 201.692 79.81 L 201.692 79.81 Q 201.712 79.41 201.752 78.99 L 201.752 78.99 L 201.752 78.99 Q 201.412 79.01 201.012 79.02 L 201.012 79.02 L 201.012 79.02 Q 200.612 79.03 200.352 79.05 L 200.352 79.05 L 200.352 77.77 L 201.092 77.77 L 201.092 77.77 Q 201.892 77.77 202.432 77.58 L 202.432 77.58 L 202.432 77.58 Q 202.972 77.39 203.192 77.19 L 203.192 77.19 L 204.032 77.19 L 204.032 77.19 Q 204.072 77.43 204.092 77.95 L 204.092 77.95 L 204.092 77.95 Q 204.112 78.47 204.112 78.99 L 204.112 78.99 L 204.112 78.99 Q 204.572 78.39 205.072 77.96 L 205.072 77.96 L 205.072 77.96 Q 205.572 77.53 206.102 77.3 L 206.102 77.3 L 206.102 77.3 Q 206.632 77.07 207.192 77.07 L 207.192 77.07 L 207.192 77.07 Q 207.832 77.07 208.322 77.43 L 208.322 77.43 L 208.322 77.43 Q 208.812 77.79 208.812 78.59 L 208.812 78.59 L 208.812 78.59 Q 208.812 78.85 208.682 79.15 L 208.682 79.15 L 208.682 79.15 Q 208.552 79.45 208.282 79.65 L 208.282 79.65 L 208.282 79.65 Q 208.012 79.85 207.552 79.85 L 207.552 79.85 L 207.552 79.85 Q 207.132 79.85 206.762 79.58 L 206.762 79.58 L 206.762 79.58 Q 206.392 79.31 206.372 78.71 L 206.372 78.71 L 206.372 78.71 Q 205.952 78.69 205.502 79.01 L 205.502 79.01 L 205.502 79.01 Q 205.052 79.33 204.692 79.79 L 204.692 79.79 L 204.692 79.79 Q 204.332 80.25 204.132 80.73 L 204.132 80.73 L 204.152 84.53 L 204.152 84.53 Q 204.152 84.85 204.132 85.3 L 204.132 85.3 L 204.132 85.3 Q 204.112 85.75 204.072 86.17 L 204.072 86.17 L 204.072 86.17 Q 204.392 86.13 204.752 86.12 L 204.752 86.12 L 204.752 86.12 Q 205.112 86.11 205.352 86.11 L 205.352 86.11 L 205.352 87.39 L 200.492 87.39 Z  M 213.612 87.71 L 213.612 87.71 L 213.612 87.71 Q 212.412 87.71 211.472 87.09 L 211.472 87.09 L 211.472 87.09 Q 210.532 86.47 210.002 85.33 L 210.002 85.33 L 210.002 85.33 Q 209.472 84.19 209.472 82.65 L 209.472 82.65 L 209.472 82.65 Q 209.472 81.03 210.112 79.77 L 210.112 79.77 L 210.112 79.77 Q 210.752 78.51 211.882 77.79 L 211.882 77.79 L 211.882 77.79 Q 213.012 77.07 214.492 77.07 L 214.492 77.07 L 214.492 77.07 Q 215.072 77.07 215.582 77.2 L 215.582 77.2 L 215.582 77.2 Q 216.092 77.33 216.472 77.49 L 216.472 77.49 L 216.472 75.71 L 216.472 75.71 Q 216.472 75.41 216.482 74.97 L 216.482 74.97 L 216.482 74.97 Q 216.492 74.53 216.532 74.09 L 216.532 74.09 L 216.532 74.09 Q 216.212 74.11 215.802 74.13 L 215.802 74.13 L 215.802 74.13 Q 215.392 74.15 215.112 74.17 L 215.112 74.17 L 215.112 72.87 L 215.112 72.87 Q 216.032 72.87 216.612 72.78 L 216.612 72.78 L 216.612 72.78 Q 217.192 72.69 217.522 72.55 L 217.522 72.55 L 217.522 72.55 Q 217.852 72.41 217.992 72.29 L 217.992 72.29 L 218.912 72.29 L 218.912 84.53 L 218.912 84.53 Q 218.912 84.83 218.892 85.28 L 218.892 85.28 L 218.892 85.28 Q 218.872 85.73 218.832 86.17 L 218.832 86.17 L 218.832 86.17 Q 219.172 86.13 219.542 86.12 L 219.542 86.12 L 219.542 86.12 Q 219.912 86.11 220.172 86.09 L 220.172 86.09 L 220.172 87.39 L 216.692 87.39 L 216.692 87.39 Q 216.652 87.15 216.622 86.9 L 216.622 86.9 L 216.622 86.9 Q 216.592 86.65 216.552 86.43 L 216.552 86.43 L 216.552 86.43 Q 215.932 87.09 215.192 87.4 L 215.192 87.4 L 215.192 87.4 Q 214.452 87.71 213.612 87.71 Z  M 214.552 86.17 L 214.552 86.17 L 214.552 86.17 Q 215.112 86.17 215.632 85.86 L 215.632 85.86 L 215.632 85.86 Q 216.152 85.55 216.472 85.09 L 216.472 85.09 L 216.472 85.09 Q 216.452 84.81 216.452 84.52 L 216.452 84.52 L 216.452 84.52 Q 216.452 84.23 216.452 83.93 L 216.452 83.93 L 216.472 78.81 L 216.472 78.81 Q 216.172 78.57 215.712 78.44 L 215.712 78.44 L 215.712 78.44 Q 215.252 78.31 214.772 78.31 L 214.772 78.31 L 214.772 78.31 Q 213.832 78.33 213.242 78.9 L 213.242 78.9 L 213.242 78.9 Q 212.652 79.47 212.382 80.39 L 212.382 80.39 L 212.382 80.39 Q 212.112 81.31 212.132 82.39 L 212.132 82.39 L 212.132 82.39 Q 212.132 83.37 212.392 84.23 L 212.392 84.23 L 212.392 84.23 Q 212.652 85.09 213.182 85.63 L 213.182 85.63 L 213.182 85.63 Q 213.712 86.17 214.552 86.17 Z  M 226.332 87.71 L 226.332 87.71 L 226.332 87.71 Q 224.892 87.71 223.772 87.06 L 223.772 87.06 L 223.772 87.06 Q 222.652 86.41 222.032 85.22 L 222.032 85.22 L 222.032 85.22 Q 221.412 84.03 221.412 82.41 L 221.412 82.41 L 221.412 82.41 Q 221.412 81.01 222.032 79.79 L 222.032 79.79 L 222.032 79.79 Q 222.652 78.57 223.782 77.82 L 223.782 77.82 L 223.782 77.82 Q 224.912 77.07 226.412 77.07 L 226.412 77.07 L 226.412 77.07 Q 227.252 77.07 228.032 77.31 L 228.032 77.31 L 228.032 77.31 Q 228.812 77.55 229.432 78.11 L 229.432 78.11 L 229.432 78.11 Q 230.052 78.67 230.422 79.59 L 230.422 79.59 L 230.422 79.59 Q 230.792 80.51 230.772 81.83 L 230.772 81.83 L 224.052 81.95 L 224.052 81.95 Q 224.052 83.19 224.342 84.14 L 224.342 84.14 L 224.342 84.14 Q 224.632 85.09 225.292 85.64 L 225.292 85.64 L 225.292 85.64 Q 225.952 86.19 227.032 86.19 L 227.032 86.19 L 227.032 86.19 Q 227.512 86.19 228.062 86.02 L 228.062 86.02 L 228.062 86.02 Q 228.612 85.85 229.152 85.5 L 229.152 85.5 L 229.152 85.5 Q 229.692 85.15 230.112 84.63 L 230.112 84.63 L 230.872 85.33 L 230.872 85.33 Q 230.212 86.29 229.412 86.81 L 229.412 86.81 L 229.412 86.81 Q 228.612 87.33 227.812 87.52 L 227.812 87.52 L 227.812 87.52 Q 227.012 87.71 226.332 87.71 Z  M 224.152 80.75 L 224.152 80.75 L 228.312 80.75 L 228.312 80.75 Q 228.292 79.95 228.082 79.4 L 228.082 79.4 L 228.082 79.4 Q 227.872 78.85 227.472 78.56 L 227.472 78.56 L 227.472 78.56 Q 227.072 78.27 226.492 78.27 L 226.492 78.27 L 226.492 78.27 Q 225.512 78.27 224.922 78.92 L 224.922 78.92 L 224.922 78.92 Q 224.332 79.57 224.152 80.75 Z  M 232.332 87.39 L 232.332 86.33 L 232.332 86.33 Q 232.912 86.33 233.152 86.08 L 233.152 86.08 L 233.152 86.08 Q 233.392 85.83 233.452 85.37 L 233.452 85.37 L 233.452 85.37 Q 233.512 84.91 233.512 84.33 L 233.512 84.33 L 233.512 80.57 L 233.512 80.57 Q 233.512 80.21 233.532 79.81 L 233.532 79.81 L 233.532 79.81 Q 233.552 79.41 233.592 78.99 L 233.592 78.99 L 233.592 78.99 Q 233.252 79.01 232.852 79.02 L 232.852 79.02 L 232.852 79.02 Q 232.452 79.03 232.192 79.05 L 232.192 79.05 L 232.192 77.77 L 232.932 77.77 L 232.932 77.77 Q 233.732 77.77 234.272 77.58 L 234.272 77.58 L 234.272 77.58 Q 234.812 77.39 235.032 77.19 L 235.032 77.19 L 235.872 77.19 L 235.872 77.19 Q 235.912 77.43 235.932 77.95 L 235.932 77.95 L 235.932 77.95 Q 235.952 78.47 235.952 78.99 L 235.952 78.99 L 235.952 78.99 Q 236.412 78.39 236.912 77.96 L 236.912 77.96 L 236.912 77.96 Q 237.412 77.53 237.942 77.3 L 237.942 77.3 L 237.942 77.3 Q 238.472 77.07 239.032 77.07 L 239.032 77.07 L 239.032 77.07 Q 239.672 77.07 240.162 77.43 L 240.162 77.43 L 240.162 77.43 Q 240.652 77.79 240.652 78.59 L 240.652 78.59 L 240.652 78.59 Q 240.652 78.85 240.522 79.15 L 240.522 79.15 L 240.522 79.15 Q 240.392 79.45 240.122 79.65 L 240.122 79.65 L 240.122 79.65 Q 239.852 79.85 239.392 79.85 L 239.392 79.85 L 239.392 79.85 Q 238.972 79.85 238.602 79.58 L 238.602 79.58 L 238.602 79.58 Q 238.232 79.31 238.212 78.71 L 238.212 78.71 L 238.212 78.71 Q 237.792 78.69 237.342 79.01 L 237.342 79.01 L 237.342 79.01 Q 236.892 79.33 236.532 79.79 L 236.532 79.79 L 236.532 79.79 Q 236.172 80.25 235.972 80.73 L 235.972 80.73 L 235.992 84.53 L 235.992 84.53 Q 235.992 84.85 235.972 85.3 L 235.972 85.3 L 235.972 85.3 Q 235.952 85.75 235.912 86.17 L 235.912 86.17 L 235.912 86.17 Q 236.232 86.13 236.592 86.12 L 236.592 86.12 L 236.592 86.12 Q 236.952 86.11 237.192 86.11 L 237.192 86.11 L 237.192 87.39 L 232.332 87.39 Z " fill="rgb(255,255,255)"/></g></g></svg>